<mxfile host="app.diagrams.net" modified="2021-01-09T11:40:12.524Z" agent="5.0 (X11; Linux x86_64) AppleWebKit/537.36 (KHTML, like Gecko) Chrome/87.0.4280.88 Safari/537.36" etag="Ci9s4u2GPnE4t-DJSaDy" version="14.1.8" type="github">
  <diagram id="JC-9Z7CD8RgevgUQQ2aY" name="Page-1">
    <mxGraphModel dx="744" dy="357" grid="1" gridSize="10" guides="1" tooltips="1" connect="1" arrows="1" fold="1" page="1" pageScale="1" pageWidth="850" pageHeight="1100" math="0" shadow="0">
      <root>
        <mxCell id="0" />
        <mxCell id="1" parent="0" />
        <mxCell id="dB0ah8erv6HTThukyKJ2-1" value="Camera&amp;nbsp;" style="rounded=0;whiteSpace=wrap;html=1;" vertex="1" parent="1">
          <mxGeometry x="150" y="100" width="100" height="40" as="geometry" />
        </mxCell>
        <mxCell id="dB0ah8erv6HTThukyKJ2-2" value="Drowsiness Detector algo" style="rounded=0;whiteSpace=wrap;html=1;" vertex="1" parent="1">
          <mxGeometry x="280" y="100" width="110" height="40" as="geometry" />
        </mxCell>
        <mxCell id="dB0ah8erv6HTThukyKJ2-3" value="Database &amp;amp;API" style="rounded=0;whiteSpace=wrap;html=1;" vertex="1" parent="1">
          <mxGeometry x="425" y="100" width="105" height="40" as="geometry" />
        </mxCell>
        <mxCell id="dB0ah8erv6HTThukyKJ2-4" value="REST client" style="rounded=0;whiteSpace=wrap;html=1;" vertex="1" parent="1">
          <mxGeometry x="560" y="100" width="90" height="40" as="geometry" />
        </mxCell>
        <mxCell id="dB0ah8erv6HTThukyKJ2-5" value="Driver" style="shape=umlActor;verticalLabelPosition=bottom;verticalAlign=top;html=1;outlineConnect=0;" vertex="1" parent="1">
          <mxGeometry x="60" y="35" width="50" height="80" as="geometry" />
        </mxCell>
        <mxCell id="dB0ah8erv6HTThukyKJ2-8" value="User" style="shape=umlActor;verticalLabelPosition=bottom;verticalAlign=top;html=1;outlineConnect=0;" vertex="1" parent="1">
          <mxGeometry x="735" y="25" width="50" height="90" as="geometry" />
        </mxCell>
        <mxCell id="dB0ah8erv6HTThukyKJ2-16" value="" style="endArrow=none;dashed=1;html=1;entryX=0.5;entryY=1;entryDx=0;entryDy=0;" edge="1" parent="1" target="dB0ah8erv6HTThukyKJ2-1">
          <mxGeometry width="50" height="50" relative="1" as="geometry">
            <mxPoint x="200" y="410" as="sourcePoint" />
            <mxPoint x="160" y="210" as="targetPoint" />
          </mxGeometry>
        </mxCell>
        <mxCell id="dB0ah8erv6HTThukyKJ2-17" value="" style="endArrow=none;dashed=1;html=1;" edge="1" parent="1">
          <mxGeometry width="50" height="50" relative="1" as="geometry">
            <mxPoint x="80" y="410" as="sourcePoint" />
            <mxPoint x="80" y="140" as="targetPoint" />
          </mxGeometry>
        </mxCell>
        <mxCell id="dB0ah8erv6HTThukyKJ2-19" value="" style="endArrow=none;dashed=1;html=1;entryX=0.5;entryY=1;entryDx=0;entryDy=0;" edge="1" parent="1" source="dB0ah8erv6HTThukyKJ2-26">
          <mxGeometry width="50" height="50" relative="1" as="geometry">
            <mxPoint x="339.5" y="782.272705078125" as="sourcePoint" />
            <mxPoint x="339.5" y="135" as="targetPoint" />
          </mxGeometry>
        </mxCell>
        <mxCell id="dB0ah8erv6HTThukyKJ2-20" value="" style="endArrow=none;dashed=1;html=1;entryX=0.5;entryY=1;entryDx=0;entryDy=0;" edge="1" parent="1">
          <mxGeometry width="50" height="50" relative="1" as="geometry">
            <mxPoint x="487" y="410" as="sourcePoint" />
            <mxPoint x="487" y="140" as="targetPoint" />
          </mxGeometry>
        </mxCell>
        <mxCell id="dB0ah8erv6HTThukyKJ2-21" value="" style="endArrow=none;dashed=1;html=1;entryX=0.5;entryY=1;entryDx=0;entryDy=0;" edge="1" parent="1" source="dB0ah8erv6HTThukyKJ2-74">
          <mxGeometry width="50" height="50" relative="1" as="geometry">
            <mxPoint x="644.5" y="787.272705078125" as="sourcePoint" />
            <mxPoint x="644.5" y="140" as="targetPoint" />
          </mxGeometry>
        </mxCell>
        <mxCell id="dB0ah8erv6HTThukyKJ2-22" value="Input Video" style="text;html=1;strokeColor=none;fillColor=none;align=center;verticalAlign=middle;whiteSpace=wrap;rounded=0;" vertex="1" parent="1">
          <mxGeometry x="108" y="180" width="70" height="20" as="geometry" />
        </mxCell>
        <mxCell id="dB0ah8erv6HTThukyKJ2-23" value="" style="endArrow=classic;html=1;" edge="1" parent="1">
          <mxGeometry width="50" height="50" relative="1" as="geometry">
            <mxPoint x="80" y="200" as="sourcePoint" />
            <mxPoint x="192" y="200" as="targetPoint" />
          </mxGeometry>
        </mxCell>
        <mxCell id="dB0ah8erv6HTThukyKJ2-24" value="" style="rounded=0;whiteSpace=wrap;html=1;" vertex="1" parent="1">
          <mxGeometry x="190" y="170" width="20" height="240" as="geometry" />
        </mxCell>
        <mxCell id="dB0ah8erv6HTThukyKJ2-26" value="" style="rounded=0;whiteSpace=wrap;html=1;" vertex="1" parent="1">
          <mxGeometry x="330" y="177" width="20" height="103" as="geometry" />
        </mxCell>
        <mxCell id="dB0ah8erv6HTThukyKJ2-28" value="" style="endArrow=none;dashed=1;html=1;entryX=0.5;entryY=1;entryDx=0;entryDy=0;" edge="1" parent="1" source="dB0ah8erv6HTThukyKJ2-71" target="dB0ah8erv6HTThukyKJ2-26">
          <mxGeometry width="50" height="50" relative="1" as="geometry">
            <mxPoint x="339.5" y="782.272705078125" as="sourcePoint" />
            <mxPoint x="339.5" y="135" as="targetPoint" />
          </mxGeometry>
        </mxCell>
        <mxCell id="dB0ah8erv6HTThukyKJ2-29" value="Extract Image frame &lt;br&gt;from video" style="text;html=1;align=center;verticalAlign=middle;resizable=0;points=[];autosize=1;" vertex="1" parent="1">
          <mxGeometry x="215" y="215" width="120" height="30" as="geometry" />
        </mxCell>
        <mxCell id="dB0ah8erv6HTThukyKJ2-31" value="" style="rounded=0;whiteSpace=wrap;html=1;" vertex="1" parent="1">
          <mxGeometry x="477.5" y="170" width="20" height="110" as="geometry" />
        </mxCell>
        <mxCell id="dB0ah8erv6HTThukyKJ2-32" value="Store Drowsiness Status &amp;amp; Post at endpoint" style="text;html=1;strokeColor=none;fillColor=none;align=center;verticalAlign=middle;whiteSpace=wrap;rounded=0;" vertex="1" parent="1">
          <mxGeometry x="371" y="240" width="105" height="30" as="geometry" />
        </mxCell>
        <mxCell id="dB0ah8erv6HTThukyKJ2-34" value="" style="endArrow=classic;html=1;entryX=0.25;entryY=0;entryDx=0;entryDy=0;" edge="1" parent="1" target="dB0ah8erv6HTThukyKJ2-26">
          <mxGeometry width="50" height="50" relative="1" as="geometry">
            <mxPoint x="300" y="177" as="sourcePoint" />
            <mxPoint x="290" y="150" as="targetPoint" />
          </mxGeometry>
        </mxCell>
        <mxCell id="dB0ah8erv6HTThukyKJ2-35" value="Start algo" style="text;html=1;strokeColor=none;fillColor=none;align=center;verticalAlign=middle;whiteSpace=wrap;rounded=0;" vertex="1" parent="1">
          <mxGeometry x="255" y="160" width="40" height="20" as="geometry" />
        </mxCell>
        <mxCell id="dB0ah8erv6HTThukyKJ2-38" value="" style="endArrow=classic;html=1;entryX=0;entryY=0;entryDx=0;entryDy=0;" edge="1" parent="1" target="dB0ah8erv6HTThukyKJ2-24">
          <mxGeometry width="50" height="50" relative="1" as="geometry">
            <mxPoint x="150" y="170" as="sourcePoint" />
            <mxPoint x="150" y="140" as="targetPoint" />
          </mxGeometry>
        </mxCell>
        <mxCell id="dB0ah8erv6HTThukyKJ2-39" value="Start camera" style="text;html=1;strokeColor=none;fillColor=none;align=center;verticalAlign=middle;whiteSpace=wrap;rounded=0;" vertex="1" parent="1">
          <mxGeometry x="124" y="146" width="40" height="20" as="geometry" />
        </mxCell>
        <mxCell id="dB0ah8erv6HTThukyKJ2-43" value="" style="endArrow=classic;html=1;strokeColor=#000000;fontStyle=0;exitX=1.055;exitY=0.163;exitDx=0;exitDy=0;exitPerimeter=0;" edge="1" parent="1" source="dB0ah8erv6HTThukyKJ2-24">
          <mxGeometry width="50" height="50" relative="1" as="geometry">
            <mxPoint x="209" y="200" as="sourcePoint" />
            <mxPoint x="326" y="210" as="targetPoint" />
          </mxGeometry>
        </mxCell>
        <mxCell id="dB0ah8erv6HTThukyKJ2-44" value="" style="endArrow=classic;html=1;strokeColor=#000000;" edge="1" parent="1">
          <mxGeometry width="50" height="50" relative="1" as="geometry">
            <mxPoint x="350" y="218" as="sourcePoint" />
            <mxPoint x="477" y="218" as="targetPoint" />
          </mxGeometry>
        </mxCell>
        <mxCell id="dB0ah8erv6HTThukyKJ2-45" value="" style="endArrow=classic;html=1;entryX=0;entryY=0;entryDx=0;entryDy=0;" edge="1" parent="1" target="dB0ah8erv6HTThukyKJ2-31">
          <mxGeometry width="50" height="50" relative="1" as="geometry">
            <mxPoint x="450" y="170" as="sourcePoint" />
            <mxPoint x="480" y="180" as="targetPoint" />
          </mxGeometry>
        </mxCell>
        <mxCell id="dB0ah8erv6HTThukyKJ2-46" value="Start API" style="text;html=1;strokeColor=none;fillColor=none;align=center;verticalAlign=middle;whiteSpace=wrap;rounded=0;" vertex="1" parent="1">
          <mxGeometry x="405" y="150" width="40" height="20" as="geometry" />
        </mxCell>
        <mxCell id="dB0ah8erv6HTThukyKJ2-48" value="" style="html=1;verticalAlign=bottom;endArrow=open;dashed=1;endSize=8;strokeColor=#000000;" edge="1" parent="1">
          <mxGeometry relative="1" as="geometry">
            <mxPoint x="640" y="230" as="sourcePoint" />
            <mxPoint x="500" y="230" as="targetPoint" />
          </mxGeometry>
        </mxCell>
        <mxCell id="dB0ah8erv6HTThukyKJ2-49" value="&amp;nbsp;&lt;br&gt;get the drowsiness &lt;br&gt;status data" style="text;html=1;align=center;verticalAlign=middle;resizable=0;points=[];autosize=1;" vertex="1" parent="1">
          <mxGeometry x="510" y="177" width="120" height="50" as="geometry" />
        </mxCell>
        <mxCell id="dB0ah8erv6HTThukyKJ2-50" value="" style="endArrow=classic;html=1;strokeColor=#000000;exitX=1;exitY=0.25;exitDx=0;exitDy=0;" edge="1" parent="1">
          <mxGeometry width="50" height="50" relative="1" as="geometry">
            <mxPoint x="497.5" y="239" as="sourcePoint" />
            <mxPoint x="640" y="239" as="targetPoint" />
          </mxGeometry>
        </mxCell>
        <mxCell id="dB0ah8erv6HTThukyKJ2-51" value="&amp;nbsp;&lt;br&gt;respnse drowsiness &lt;br&gt;status data" style="text;html=1;align=center;verticalAlign=middle;resizable=0;points=[];autosize=1;" vertex="1" parent="1">
          <mxGeometry x="510" y="230" width="120" height="50" as="geometry" />
        </mxCell>
        <mxCell id="dB0ah8erv6HTThukyKJ2-53" value="" style="rounded=0;whiteSpace=wrap;html=1;" vertex="1" parent="1">
          <mxGeometry x="640" y="173.5" width="20" height="106.5" as="geometry" />
        </mxCell>
        <mxCell id="dB0ah8erv6HTThukyKJ2-54" value="" style="endArrow=classic;html=1;entryX=0;entryY=0;entryDx=0;entryDy=0;" edge="1" parent="1" target="dB0ah8erv6HTThukyKJ2-53">
          <mxGeometry width="50" height="50" relative="1" as="geometry">
            <mxPoint x="610" y="174" as="sourcePoint" />
            <mxPoint x="487.5" y="180" as="targetPoint" />
          </mxGeometry>
        </mxCell>
        <mxCell id="dB0ah8erv6HTThukyKJ2-55" value="start client &lt;br&gt;service" style="text;html=1;align=center;verticalAlign=middle;resizable=0;points=[];autosize=1;" vertex="1" parent="1">
          <mxGeometry x="560" y="145" width="70" height="30" as="geometry" />
        </mxCell>
        <mxCell id="dB0ah8erv6HTThukyKJ2-57" value="" style="endArrow=none;dashed=1;html=1;" edge="1" parent="1">
          <mxGeometry width="50" height="50" relative="1" as="geometry">
            <mxPoint x="760" y="410" as="sourcePoint" />
            <mxPoint x="760" y="140" as="targetPoint" />
          </mxGeometry>
        </mxCell>
        <mxCell id="dB0ah8erv6HTThukyKJ2-61" value="" style="endArrow=none;dashed=1;html=1;" edge="1" parent="1">
          <mxGeometry width="50" height="50" relative="1" as="geometry">
            <mxPoint x="760" y="420" as="sourcePoint" />
            <mxPoint x="760" y="420" as="targetPoint" />
          </mxGeometry>
        </mxCell>
        <mxCell id="dB0ah8erv6HTThukyKJ2-62" value="" style="endArrow=classic;html=1;strokeColor=#000000;" edge="1" parent="1">
          <mxGeometry width="50" height="50" relative="1" as="geometry">
            <mxPoint x="665" y="240" as="sourcePoint" />
            <mxPoint x="751" y="240" as="targetPoint" />
          </mxGeometry>
        </mxCell>
        <mxCell id="dB0ah8erv6HTThukyKJ2-63" value="Push &lt;br&gt;Notifications" style="text;html=1;align=center;verticalAlign=middle;resizable=0;points=[];autosize=1;" vertex="1" parent="1">
          <mxGeometry x="670" y="245" width="80" height="30" as="geometry" />
        </mxCell>
        <mxCell id="dB0ah8erv6HTThukyKJ2-65" value="" style="endArrow=classic;html=1;strokeColor=#000000;" edge="1" parent="1">
          <mxGeometry width="50" height="50" relative="1" as="geometry">
            <mxPoint x="211.5" y="280" as="sourcePoint" />
            <mxPoint x="330" y="280" as="targetPoint" />
          </mxGeometry>
        </mxCell>
        <mxCell id="dB0ah8erv6HTThukyKJ2-66" value="" style="endArrow=classic;html=1;strokeColor=#000000;exitX=1;exitY=1;exitDx=0;exitDy=0;" edge="1" parent="1" source="dB0ah8erv6HTThukyKJ2-26">
          <mxGeometry width="50" height="50" relative="1" as="geometry">
            <mxPoint x="358.25" y="280" as="sourcePoint" />
            <mxPoint x="476.75" y="280" as="targetPoint" />
          </mxGeometry>
        </mxCell>
        <mxCell id="dB0ah8erv6HTThukyKJ2-67" value="" style="endArrow=classic;html=1;strokeColor=#000000;" edge="1" parent="1">
          <mxGeometry width="50" height="50" relative="1" as="geometry">
            <mxPoint x="500" y="280" as="sourcePoint" />
            <mxPoint x="640" y="280" as="targetPoint" />
          </mxGeometry>
        </mxCell>
        <mxCell id="dB0ah8erv6HTThukyKJ2-68" value="" style="endArrow=classic;html=1;strokeColor=#000000;exitX=1;exitY=1;exitDx=0;exitDy=0;" edge="1" parent="1" source="dB0ah8erv6HTThukyKJ2-53">
          <mxGeometry width="50" height="50" relative="1" as="geometry">
            <mxPoint x="610" y="280" as="sourcePoint" />
            <mxPoint x="750" y="280" as="targetPoint" />
          </mxGeometry>
        </mxCell>
        <mxCell id="dB0ah8erv6HTThukyKJ2-70" value="" style="html=1;verticalAlign=bottom;endArrow=open;dashed=1;endSize=8;strokeColor=#000000;" edge="1" parent="1">
          <mxGeometry relative="1" as="geometry">
            <mxPoint x="354" y="230" as="sourcePoint" />
            <mxPoint x="80" y="250" as="targetPoint" />
            <Array as="points">
              <mxPoint x="370" y="230" />
              <mxPoint x="370" y="250" />
            </Array>
          </mxGeometry>
        </mxCell>
        <mxCell id="dB0ah8erv6HTThukyKJ2-71" value="" style="rounded=0;whiteSpace=wrap;html=1;" vertex="1" parent="1">
          <mxGeometry x="330" y="307" width="20" height="103" as="geometry" />
        </mxCell>
        <mxCell id="dB0ah8erv6HTThukyKJ2-72" value="" style="endArrow=none;dashed=1;html=1;entryX=0.5;entryY=1;entryDx=0;entryDy=0;" edge="1" parent="1" target="dB0ah8erv6HTThukyKJ2-71">
          <mxGeometry width="50" height="50" relative="1" as="geometry">
            <mxPoint x="340" y="410" as="sourcePoint" />
            <mxPoint x="340" y="280" as="targetPoint" />
          </mxGeometry>
        </mxCell>
        <mxCell id="dB0ah8erv6HTThukyKJ2-73" value="" style="rounded=0;whiteSpace=wrap;html=1;" vertex="1" parent="1">
          <mxGeometry x="477.5" y="307" width="20" height="103" as="geometry" />
        </mxCell>
        <mxCell id="dB0ah8erv6HTThukyKJ2-74" value="" style="rounded=0;whiteSpace=wrap;html=1;" vertex="1" parent="1">
          <mxGeometry x="640" y="307" width="20" height="103" as="geometry" />
        </mxCell>
        <mxCell id="dB0ah8erv6HTThukyKJ2-75" value="" style="endArrow=none;dashed=1;html=1;entryX=0.5;entryY=1;entryDx=0;entryDy=0;" edge="1" parent="1" target="dB0ah8erv6HTThukyKJ2-74">
          <mxGeometry width="50" height="50" relative="1" as="geometry">
            <mxPoint x="650" y="410" as="sourcePoint" />
            <mxPoint x="644.5" y="140" as="targetPoint" />
          </mxGeometry>
        </mxCell>
        <mxCell id="dB0ah8erv6HTThukyKJ2-79" value="Up to nth frame capture" style="text;html=1;strokeColor=none;fillColor=none;align=center;verticalAlign=middle;whiteSpace=wrap;rounded=0;" vertex="1" parent="1">
          <mxGeometry x="240" y="340" width="80" height="10" as="geometry" />
        </mxCell>
        <mxCell id="dB0ah8erv6HTThukyKJ2-82" value="" style="endArrow=classic;html=1;strokeColor=#000000;exitX=0.964;exitY=0.105;exitDx=0;exitDy=0;exitPerimeter=0;" edge="1" parent="1">
          <mxGeometry width="50" height="50" relative="1" as="geometry">
            <mxPoint x="213.27999999999997" y="309.95000000000005" as="sourcePoint" />
            <mxPoint x="330" y="309" as="targetPoint" />
          </mxGeometry>
        </mxCell>
        <mxCell id="dB0ah8erv6HTThukyKJ2-83" value="" style="endArrow=none;html=1;strokeColor=#000000;" edge="1" parent="1">
          <mxGeometry width="50" height="50" relative="1" as="geometry">
            <mxPoint x="80" y="410" as="sourcePoint" />
            <mxPoint x="760" y="410" as="targetPoint" />
            <Array as="points" />
          </mxGeometry>
        </mxCell>
        <mxCell id="dB0ah8erv6HTThukyKJ2-84" value="Stop Execution on&quot;q&quot; key" style="text;html=1;strokeColor=none;fillColor=none;align=center;verticalAlign=middle;whiteSpace=wrap;rounded=0;" vertex="1" parent="1">
          <mxGeometry x="215" y="420" width="155" height="20" as="geometry" />
        </mxCell>
        <mxCell id="dB0ah8erv6HTThukyKJ2-90" value="Get drowsy &lt;br&gt;status" style="text;html=1;align=center;verticalAlign=middle;resizable=0;points=[];autosize=1;" vertex="1" parent="1">
          <mxGeometry x="103" y="250" width="80" height="30" as="geometry" />
        </mxCell>
      </root>
    </mxGraphModel>
  </diagram>
</mxfile>
